<?xml version="1.0" encoding="UTF-8"?> <svg xmlns="http://www.w3.org/2000/svg" viewBox="0 0 191.06 54.18"> <defs> <style>.cls-1{fill:#222220;}.cls-2{fill:none;}</style> </defs> <title>Ресурс 1</title> <g id="Слой_2" data-name="Слой 2"> <g id="Слой_1-2" data-name="Слой 1"> <path class="cls-1" d="M66.62,45.69H120a1.05,1.05,0,0,1,.93,1.14h0A1.05,1.05,0,0,1,120,48H66.62a1.05,1.05,0,0,1-.93-1.14h0A1.05,1.05,0,0,1,66.62,45.69Z"></path> <polygon class="cls-1" points="70.22 3.22 66.28 3.22 66.28 0.59 77.02 0.59 77.02 3.22 73.08 3.22 73.08 13.56 70.22 13.56 70.22 3.22"></polygon> <path class="cls-1" d="M78.45,7.08a6.89,6.89,0,1,1,7.08,6.7h-.21a6.71,6.71,0,0,1-6.87-6.55Zm10.8,0A3.94,3.94,0,0,0,85.45,3h-.13a3.89,3.89,0,0,0-3.89,3.89v.19a3.94,3.94,0,0,0,3.81,4.07h.12a3.87,3.87,0,0,0,3.89-3.87Z"></path> <path class="cls-1" d="M95.14.59h5.3c3.09,0,5,1.84,5,4.52,0,3-2.33,4.56-5.24,4.56H98v3.89H95.14Zm5.11,6.54a2,2,0,0,0,2.24-1.72,1.32,1.32,0,0,0,0-.28c0-1.28-.89-2-2.31-2H98v4Z"></path> <path class="cls-1" d="M65.69,31.7l1.69-2a6,6,0,0,0,3.87,1.57c1.17,0,1.87-.46,1.87-1.26s-.44-1.09-2.61-1.65c-2.61-.66-4.3-1.39-4.3-4,0-2.35,1.89-3.91,4.54-3.91a7.46,7.46,0,0,1,4.82,1.65l-1.49,2.15A6,6,0,0,0,70.71,23c-1.09,0-1.66.5-1.66,1.17,0,.85.55,1.13,2.79,1.7,2.63.69,4.12,1.63,4.12,3.93,0,2.58-2,4-4.77,4A8.25,8.25,0,0,1,65.69,31.7Z"></path> <polygon class="cls-1" points="81.55 23.25 77.6 23.25 77.6 20.62 88.35 20.62 88.35 23.25 84.4 23.25 84.4 33.59 81.55 33.59 81.55 23.25"></polygon> <path class="cls-1" d="M90.9,20.62h5.93a5.15,5.15,0,0,1,3.78,1.31,4.11,4.11,0,0,1,1.11,3,4,4,0,0,1-2.78,4l3.17,4.64H98.78L96,29.44H93.8v4.15H90.9Zm5.74,6.3c1.4,0,2.19-.74,2.19-1.88s-.85-1.85-2.24-1.85H93.76v3.73Z"></path> <polygon class="cls-1" points="104.66 20.62 114.45 20.62 114.45 23.16 107.5 23.16 107.5 25.78 113.61 25.78 113.61 28.32 107.5 28.32 107.5 31.05 114.54 31.05 114.54 33.59 104.66 33.59 104.66 20.62"></polygon> <polygon class="cls-1" points="120.47 23.25 116.52 23.25 116.52 20.62 127.26 20.62 127.26 23.25 123.32 23.25 123.32 33.59 120.47 33.59 120.47 23.25"></polygon> <path class="cls-1" d="M128.69,27.1a6.59,6.59,0,0,1,6.45-6.73h.31a6.5,6.5,0,0,1,5,2.12l-1.7,2a4.49,4.49,0,0,0-3.34-1.44A3.86,3.86,0,0,0,131.64,27a.66.66,0,0,1,0,.14,3.85,3.85,0,0,0,3.63,4.07h.13a4.74,4.74,0,0,0,3.41-1.52l1.82,1.94a6.91,6.91,0,0,1-12-4.5Z"></path> <polygon class="cls-1" points="143.3 20.62 146.16 20.62 146.16 25.75 151.42 25.75 151.42 20.62 154.27 20.62 154.27 33.59 151.42 33.59 151.42 28.38 146.16 28.38 146.16 33.59 143.3 33.59 143.3 20.62"></polygon> <rect class="cls-1" x="157.24" y="20.62" width="2.85" height="12.97"></rect> <polygon class="cls-1" points="163.7 20.62 166.33 20.62 172.41 28.6 172.41 20.62 175.22 20.62 175.23 33.59 172.8 33.59 166.52 25.34 166.52 33.59 163.7 33.59 163.7 20.62"></polygon> <path class="cls-1" d="M178.13,27.1a6.66,6.66,0,0,1,6.61-6.71h.19A7.13,7.13,0,0,1,190,22.17l-1.77,2.2a4.79,4.79,0,0,0-3.39-1.32,3.9,3.9,0,0,0-3.73,4.08,3.87,3.87,0,0,0,3.67,4.07H185a4.61,4.61,0,0,0,2.69-.77V28.58h-2.87V26.12h5.63v5.63A8.46,8.46,0,0,1,185,33.81a6.49,6.49,0,0,1-6.86-6.12A5.76,5.76,0,0,1,178.13,27.1Z"></path> <path class="cls-1" d="M189.92,7.27H113.47a1.14,1.14,0,0,1,0-2.28h76.45a1.14,1.14,0,1,1,0,2.28Z"></path> <path class="cls-2" d="M15,17H36.17v1.43a1.42,1.42,0,0,0,1.41,1.42h0A1.43,1.43,0,0,0,39,18.44h0V17a2.83,2.83,0,0,0-2.82-2.83h0L15,14.19A1.41,1.41,0,1,0,15,17Z"></path> <path class="cls-2" d="M15,22.66H27.7V36.78H24.87V29.72a1.41,1.41,0,0,0-2.82,0v7.12a2.75,2.75,0,0,0,2.74,2.76h2.92a2.8,2.8,0,0,0,2.81-2.79h0V22.66h0a2.83,2.83,0,0,0-2.83-2.83H15a1.42,1.42,0,0,0,0,2.83Z"></path> <path class="cls-1" d="M0,.59V53.15H52.57V.59ZM30.52,36.8a2.8,2.8,0,0,1-2.8,2.8H24.81a2.75,2.75,0,0,1-2.76-2.74V29.72a1.41,1.41,0,0,1,2.82,0v7.06h2.82V22.66H15a1.42,1.42,0,0,1,0-2.83H27.7a2.83,2.83,0,0,1,2.83,2.83h0ZM39,18.44a1.42,1.42,0,0,1-1.41,1.42h0a1.42,1.42,0,0,1-1.41-1.42V17H15a1.41,1.41,0,1,1,0-2.82H36.18A2.83,2.83,0,0,1,39,17Z"></path> <path class="cls-1" d="M132.86,54.14a8,8,0,0,1-5.5-2.07l1.69-2a6.1,6.1,0,0,0,3.87,1.57,2.4,2.4,0,0,0,1.37-.34,1.07,1.07,0,0,0,0-1.82,8,8,0,0,0-2.09-.75,16.43,16.43,0,0,1-1.8-.54,5.72,5.72,0,0,1-1.3-.72,2.54,2.54,0,0,1-.91-1.12,4.13,4.13,0,0,1-.29-1.61,3.53,3.53,0,0,1,1.27-2.84,4.91,4.91,0,0,1,3.27-1.07,7.47,7.47,0,0,1,4.81,1.65l-1.48,2.14a6,6,0,0,0-3.37-1.27,2.07,2.07,0,0,0-1.23.32,1,1,0,0,0-.44.84,1,1,0,0,0,.54,1,10.74,10.74,0,0,0,2.26.76,7.78,7.78,0,0,1,3.11,1.42,3.15,3.15,0,0,1,1,2.5,3.6,3.6,0,0,1-1.31,2.95A5.29,5.29,0,0,1,132.86,54.14Z"></path> <path class="cls-1" d="M143.11,54V43.63h-3.94V41H149.9v2.62H146V54Z"></path> <path class="cls-1" d="M163.31,52.23a7.2,7.2,0,0,1-9.84,0,6.72,6.72,0,0,1,0-9.5,7.18,7.18,0,0,1,9.85,0,6.74,6.74,0,0,1,0,9.5Zm-7.71-1.86a3.69,3.69,0,0,0,2.82,1.18,3.65,3.65,0,0,0,2.79-1.17,4.35,4.35,0,0,0,0-5.78,3.69,3.69,0,0,0-2.81-1.19,3.63,3.63,0,0,0-2.8,1.18,4.12,4.12,0,0,0-1.09,2.89A4.07,4.07,0,0,0,155.6,50.37Z"></path> <path class="cls-1" d="M167.82,54V41h5.92a5.07,5.07,0,0,1,3.77,1.31,4.05,4.05,0,0,1,1.11,3,3.93,3.93,0,0,1-2.77,4L179,54h-3.33l-2.81-4.15h-2.2V54Zm2.85-6.66h2.88a2.32,2.32,0,0,0,1.61-.51,1.71,1.71,0,0,0,.58-1.36,1.66,1.66,0,0,0-.59-1.38,2.57,2.57,0,0,0-1.65-.47h-2.83Z"></path> <path class="cls-1" d="M181.2,54V41H191v2.53H184v2.63h6.11V48.7H184v2.72h7V54Z"></path> </g> </g> </svg> 